<svg width="116" height="116" viewBox="0 0 116 116" fill="none" xmlns="http://www.w3.org/2000/svg">
<path d="M111.167 19.3333C111.167 11.3252 104.675 4.83331 96.6667 4.83331H77.3333C74.6639 4.83331 72.5 6.99729 72.5 9.66665C72.5 12.336 74.6639 14.5 77.3333 14.5H96.6667C99.3361 14.5 101.5 16.664 101.5 19.3333V38.6666C101.5 41.336 103.664 43.5 106.333 43.5C109.003 43.5 111.167 41.336 111.167 38.6666V19.3333Z" fill="#00A487"/>
<path d="M111.167 77.3333C111.167 74.6639 109.003 72.5 106.333 72.5C103.664 72.5 101.5 74.6639 101.5 77.3333V96.6667C101.5 99.3361 99.3361 101.5 96.6667 101.5H77.3333C74.6639 101.5 72.5 103.664 72.5 106.333C72.5 109.003 74.6639 111.167 77.3333 111.167H96.6667C104.675 111.167 111.167 104.675 111.167 96.6667V77.3333Z" fill="#00A487"/>
<path d="M19.3333 101.5C16.664 101.5 14.5 99.3361 14.5 96.6667V77.3333C14.5 74.6639 12.336 72.5 9.66667 72.5C6.99732 72.5 4.83334 74.6639 4.83334 77.3333V96.6667C4.83334 104.675 11.3252 111.167 19.3333 111.167H38.6667C41.336 111.167 43.5 109.003 43.5 106.333C43.5 103.664 41.336 101.5 38.6667 101.5H19.3333Z" fill="#00A487"/>
<path d="M4.83334 38.6666C4.83334 41.336 6.99732 43.5 9.66667 43.5C12.336 43.5 14.5 41.336 14.5 38.6666V19.3333C14.5 16.664 16.664 14.5 19.3333 14.5H38.6667C41.336 14.5 43.5 12.336 43.5 9.66665C43.5 6.99729 41.336 4.83331 38.6667 4.83331H19.3333C11.3252 4.83331 4.83334 11.3252 4.83334 19.3333V38.6666Z" fill="#00A487"/>
<path fill-rule="evenodd" clip-rule="evenodd" d="M53.1667 29C53.1667 26.3307 51.0028 24.1667 48.3333 24.1667H29C26.3306 24.1667 24.1667 26.3307 24.1667 29V48.3334C24.1667 51.0028 26.3306 53.1667 29 53.1667H48.3333C51.0028 53.1667 53.1667 51.0028 53.1667 48.3334V29ZM43.5 36.25C43.5 34.9153 42.418 33.8334 41.0833 33.8334H36.25C34.9153 33.8334 33.8333 34.9153 33.8333 36.25V41.0834C33.8333 42.418 34.9153 43.5 36.25 43.5H41.0833C42.418 43.5 43.5 42.418 43.5 41.0834V36.25Z" fill="#0B4431"/>
<path fill-rule="evenodd" clip-rule="evenodd" d="M87 62.8333C89.6695 62.8333 91.8333 64.9972 91.8333 67.6666V87C91.8333 89.6694 89.6695 91.8333 87 91.8333H67.6667C64.9972 91.8333 62.8333 89.6694 62.8333 87V67.6666C62.8333 64.9972 64.9972 62.8333 67.6667 62.8333H87ZM72.5 74.9166C72.5 73.5822 73.5822 72.5 74.9167 72.5H79.75C81.0845 72.5 82.1667 73.5822 82.1667 74.9166V79.75C82.1667 81.0845 81.0845 82.1666 79.75 82.1666H74.9167C73.5822 82.1666 72.5 81.0845 72.5 79.75V74.9166Z" fill="#0B4431"/>
<path d="M67.6667 24.1667C64.9972 24.1667 62.8333 26.3307 62.8333 29C62.8333 31.6694 64.9972 33.8334 67.6667 33.8334H79.75C81.0845 33.8334 82.1667 34.9153 82.1667 36.25V48.3334C82.1667 51.0028 84.3306 53.1667 87 53.1667C89.6695 53.1667 91.8333 51.0028 91.8333 48.3334V29C91.8333 26.3307 89.6695 24.1667 87 24.1667H67.6667Z" fill="#0B4431"/>
<path d="M67.6667 38.6667C64.9972 38.6667 62.8333 40.8306 62.8333 43.5V48.3334C62.8333 51.0028 64.9972 53.1667 67.6667 53.1667C70.3361 53.1667 72.5 51.0028 72.5 48.3334V43.5C72.5 40.8307 70.3361 38.6667 67.6667 38.6667Z" fill="#0B4431"/>
<path d="M29 62.8333C26.3306 62.8333 24.1667 64.9972 24.1667 67.6666V77.3333C24.1667 80.0028 26.3306 82.1666 29 82.1666C31.6694 82.1666 33.8333 80.0028 33.8333 77.3333V74.9166C33.8333 73.5822 34.9153 72.5 36.25 72.5H48.3333C51.0028 72.5 53.1667 70.3361 53.1667 67.6666C53.1667 64.9972 51.0028 62.8333 48.3333 62.8333H29Z" fill="#0B4431"/>
<path d="M48.3333 82.1667C45.6639 82.1667 43.5 84.3306 43.5 87C43.5 89.6695 45.6639 91.8334 48.3333 91.8334C51.0028 91.8334 53.1667 89.6695 53.1667 87C53.1667 84.3306 51.0028 82.1667 48.3333 82.1667Z" fill="#0B4431"/>
</svg>
